M48
;GenerationSoftware,Autodesk,EAGLE,9.6.2*%
;CreationDate,2021-06-02T22:13:23Z*%
FMAT,2
ICI,OFF
METRIC,TZ,000.000
T3C0.305
T2C1.016
T1C3.302
%
G90
M71
T1
X2540Y28448
X2540Y22860
X22860Y22860
X2540Y2540
X22860Y2540
X28448Y22860
X48768Y22860
X28448Y2540
X48768Y2540
X54356Y22860
X74676Y22860
X54356Y2540
X74676Y2540
X80264Y22860
X100584Y22860
X80264Y2540
X100584Y2540
X106172Y22860
X126492Y22860
X106172Y2540
X126492Y2540
X132080Y22860
X152400Y22860
X132080Y2540
X152400Y2540
X2540Y48768
X22860Y48768
X48768Y74676
X22860Y28448
X28448Y48768
X48768Y48768
X28448Y28448
X48768Y28448
X54356Y48768
X74676Y48768
X54356Y28448
X74676Y28448
X80264Y48768
X100584Y48768
X80264Y28448
X100584Y28448
X106172Y48768
X126492Y48768
X106172Y28448
X126492Y28448
X132080Y48768
X152400Y48768
X132080Y28448
X152400Y28448
X2540Y74676
X22860Y74676
X2540Y54356
X22860Y54356
X28448Y74676
X152400Y80264
X28448Y54356
X48768Y54356
X54356Y74676
X74676Y74676
X54356Y54356
X74676Y54356
X80264Y74676
X100584Y74676
X80264Y54356
X100584Y54356
X106172Y74676
X126492Y74676
X106172Y54356
X126492Y54356
X132080Y74676
X152400Y74676
X132080Y54356
X152400Y54356
X2540Y100584
X22860Y100584
X2540Y80264
X22860Y80264
X28448Y100584
X48768Y100584
X28448Y80264
X48768Y80264
X54356Y100584
X74676Y100584
X54356Y80264
X74676Y80264
X80264Y100584
X100584Y100584
X80264Y80264
X100584Y80264
X106172Y100584
X126492Y100584
X106172Y80264
X126492Y80264
X132080Y100584
X152400Y100584
X132080Y80264
T2
X116332Y1270
X7620Y1270
X17780Y1270
X15240Y1270
X12700Y1270
X10160Y1270
X33528Y1270
X43688Y1270
X41148Y1270
X38608Y1270
X36068Y1270
X59436Y1270
X69596Y1270
X67056Y1270
X64516Y1270
X61976Y1270
X85344Y1270
X95504Y1270
X92964Y1270
X90424Y1270
X87884Y1270
X111252Y1270
X121412Y1270
X118872Y1270
X113792Y1270
X137160Y1270
X147320Y1270
X144780Y1270
X142240Y1270
X139700Y1270
X7620Y27178
X17780Y27178
X15240Y27178
X12700Y27178
X10160Y27178
X33528Y27178
X43688Y27178
X41148Y27178
X38608Y27178
X36068Y27178
X59436Y27178
X69596Y27178
X67056Y27178
X64516Y27178
X61976Y27178
X85344Y27178
X95504Y27178
X92964Y27178
X90424Y27178
X87884Y27178
X111252Y27178
X121412Y27178
X118872Y27178
X116332Y27178
X113792Y27178
X137160Y27178
X147320Y27178
X144780Y27178
X142240Y27178
X139700Y27178
X7620Y53086
X17780Y53086
X15240Y53086
X12700Y53086
X10160Y53086
X33528Y53086
X43688Y53086
X41148Y53086
X38608Y53086
X36068Y53086
X59436Y53086
X69596Y53086
X67056Y53086
X64516Y53086
X61976Y53086
X85344Y53086
X95504Y53086
X92964Y53086
X90424Y53086
X87884Y53086
X111252Y53086
X121412Y53086
X118872Y53086
X116332Y53086
X113792Y53086
X137160Y53086
X147320Y53086
X144780Y53086
X142240Y53086
X139700Y53086
X7620Y78994
X17780Y78994
X15240Y78994
X12700Y78994
X10160Y78994
X33528Y78994
X43688Y78994
X41148Y78994
X38608Y78994
X36068Y78994
X59436Y78994
X69596Y78994
X67056Y78994
X64516Y78994
X61976Y78994
X85344Y78994
X95504Y78994
X92964Y78994
X90424Y78994
X87884Y78994
X111252Y78994
X121412Y78994
X118872Y78994
X116332Y78994
X113792Y78994
X137160Y78994
X147320Y78994
X144780Y78994
X142240Y78994
X139700Y78994
T3
X81153Y38608
X96012Y40513
X86487Y40513
X86487Y41910
X92583Y46228
X88265Y46228
X94234Y37338
X82931Y33782
X87757Y33909
X97790Y32766
X92837Y34765
X91694Y36690
X96012Y39243
X78359Y44958
X104775Y34671
X111760Y44958
X109982Y38608
X121031Y38108
X123952Y34798
X110109Y39624
X110109Y31623
X108458Y43688
X113919Y35687
X107061Y38608
X121920Y40513
X112395Y40513
X112395Y41910
X118491Y46228
X114173Y46228
X120142Y37338
X108839Y33782
X113665Y33909
X123698Y32766
X118745Y34765
X117602Y36690
X121920Y39243
X104267Y44958
X130683Y34671
X137668Y44958
X135890Y38608
X146939Y38108
X149860Y34798
X136017Y39624
X136017Y31623
X134366Y43688
X139827Y35687
X132969Y38608
X147828Y40513
X138303Y40513
X138303Y41910
X144399Y46228
X140081Y46228
X146050Y37338
X134747Y33782
X139573Y33909
X149606Y32766
X144653Y34765
X143510Y36690
X147828Y39243
X130175Y44958
X1143Y60579
X8128Y70866
X6350Y64516
X17399Y64016
X20320Y60706
X6477Y65532
X6477Y57531
X4826Y69596
X10287Y61595
X3429Y64516
X18288Y66421
X8763Y66421
X8763Y67818
X14859Y72136
X10541Y72136
X16510Y63246
X5207Y59690
X10033Y59817
X20066Y58674
X15113Y60673
X13970Y62598
X18288Y65151
X635Y70866
X27051Y60579
X34036Y70866
X32258Y64516
X43307Y64016
X46228Y60706
X32385Y65532
X32385Y57531
X30734Y69596
X36195Y61595
X29337Y64516
X44196Y66421
X34671Y66421
X34671Y67818
X40767Y72136
X36449Y72136
X42418Y63246
X31115Y59690
X35941Y59817
X45974Y58674
X41021Y60673
X39878Y62598
X44196Y65151
X26543Y70866
X52959Y60579
X59944Y70866
X58166Y64516
X69215Y64016
X72136Y60706
X58293Y65532
X58293Y57531
X56642Y69596
X62103Y61595
X55245Y64516
X70104Y66421
X60579Y66421
X60579Y67818
X66675Y72136
X62357Y72136
X68326Y63246
X57023Y59690
X61849Y59817
X71882Y58674
X66929Y60673
X65786Y62598
X70104Y65151
X52451Y70866
X78867Y60579
X85852Y70866
X84074Y64516
X95123Y64016
X98044Y60706
X84201Y65532
X84201Y57531
X82550Y69596
X88011Y61595
X81153Y64516
X96012Y66421
X86487Y66421
X86487Y67818
X92583Y72136
X88265Y72136
X94234Y63246
X82931Y59690
X87757Y59817
X97790Y58674
X92837Y60673
X91694Y62598
X96012Y65151
X78359Y70866
X104775Y60579
X111760Y70866
X109982Y64516
X121031Y64016
X123952Y60706
X110109Y65532
X110109Y57531
X108458Y69596
X113919Y61595
X107061Y64516
X121920Y66421
X112395Y66421
X112395Y67818
X118491Y72136
X114173Y72136
X120142Y63246
X123952Y8890
X113665Y59817
X123698Y58674
X118745Y60673
X117602Y62598
X121920Y65151
X104267Y70866
X130683Y60579
X137668Y70866
X135890Y64516
X146939Y64016
X149860Y60706
X136017Y65532
X136017Y57531
X134366Y69596
X139827Y61595
X132969Y64516
X147828Y66421
X138303Y66421
X138303Y67818
X144399Y72136
X140081Y72136
X146050Y63246
X134747Y59690
X139573Y59817
X149606Y58674
X144653Y60673
X143510Y62598
X147828Y65151
X130175Y70866
X1143Y86487
X8128Y96774
X6350Y90424
X17399Y89924
X20320Y86614
X6477Y91440
X6477Y83439
X4826Y95504
X10287Y87503
X3429Y90424
X18288Y92329
X8763Y92329
X8763Y93726
X14859Y98044
X10541Y98044
X16510Y89154
X5207Y85598
X10033Y85725
X20066Y84582
X15113Y86581
X13970Y88506
X18288Y91059
X635Y96774
X27051Y86487
X34036Y96774
X32258Y90424
X43307Y89924
X46228Y86614
X32385Y91440
X32385Y83439
X30734Y95504
X36195Y87503
X29337Y90424
X44196Y92329
X34671Y92329
X34671Y93726
X40767Y98044
X36449Y98044
X42418Y89154
X31115Y85598
X35941Y85725
X45974Y84582
X41021Y86581
X39878Y88506
X44196Y91059
X26543Y96774
X52959Y86487
X59944Y96774
X58166Y90424
X69215Y89924
X72136Y86614
X58293Y91440
X58293Y83439
X56642Y95504
X62103Y87503
X55245Y90424
X70104Y92329
X60579Y92329
X60579Y93726
X66675Y98044
X62357Y98044
X68326Y89154
X57023Y85598
X61849Y85725
X71882Y84582
X66929Y86581
X65786Y88506
X70104Y91059
X52451Y96774
X78867Y86487
X85852Y96774
X84074Y90424
X95123Y89924
X98044Y86614
X84201Y91440
X84201Y83439
X82550Y95504
X88011Y87503
X81153Y90424
X96012Y92329
X86487Y92329
X86487Y93726
X92583Y98044
X88265Y98044
X94234Y89154
X82931Y85598
X87757Y85725
X97790Y84582
X92837Y86581
X91694Y88506
X96012Y91059
X78359Y96774
X104775Y86487
X111760Y96774
X109982Y90424
X121031Y89924
X123952Y86614
X110109Y91440
X110109Y83439
X108458Y95504
X113919Y87503
X107061Y90424
X121920Y92329
X112395Y92329
X112395Y93726
X118491Y98044
X114173Y98044
X120142Y89154
X108839Y85598
X113665Y85725
X123698Y84582
X118745Y86581
X117602Y88506
X121920Y91059
X104267Y96774
X130683Y86487
X137668Y96774
X135890Y90424
X146939Y89924
X149860Y86614
X136017Y91440
X136017Y83439
X134366Y95504
X139827Y87503
X132969Y90424
X147828Y92329
X138303Y92329
X138303Y93726
X144399Y98044
X140081Y98044
X146050Y89154
X134747Y85598
X139573Y85725
X149606Y84582
X144653Y86581
X143510Y88506
X147828Y91059
X130175Y96774
X1143Y8763
X8128Y19050
X6350Y12700
X17399Y12200
X20320Y8890
X6477Y13716
X6477Y5715
X4826Y17780
X10287Y9779
X3429Y12700
X18288Y14605
X8763Y14605
X8763Y16002
X14859Y20320
X10541Y20320
X16510Y11430
X5207Y7874
X10033Y8001
X20066Y6858
X15113Y8857
X13970Y10782
X18288Y13335
X635Y19050
X27051Y8763
X34036Y19050
X32258Y12700
X43307Y12200
X46228Y8890
X32385Y13716
X32385Y5715
X30734Y17780
X36195Y9779
X29337Y12700
X44196Y14605
X34671Y14605
X34671Y16002
X40767Y20320
X36449Y20320
X42418Y11430
X31115Y7874
X35941Y8001
X45974Y6858
X41021Y8857
X39878Y10782
X44196Y13335
X26543Y19050
X52959Y8763
X59944Y19050
X58166Y12700
X69215Y12200
X72136Y8890
X58293Y13716
X58293Y5715
X56642Y17780
X62103Y9779
X55245Y12700
X70104Y14605
X60579Y14605
X60579Y16002
X66675Y20320
X62357Y20320
X68326Y11430
X57023Y7874
X61849Y8001
X71882Y6858
X66929Y8857
X65786Y10782
X70104Y13335
X52451Y19050
X78867Y8763
X85852Y19050
X84074Y12700
X95123Y12200
X98044Y8890
X84201Y13716
X84201Y5715
X82550Y17780
X88011Y9779
X81153Y12700
X96012Y14605
X86487Y14605
X86487Y16002
X92583Y20320
X88265Y20320
X94234Y11430
X82931Y7874
X87757Y8001
X97790Y6858
X92837Y8857
X91694Y10782
X96012Y13335
X78359Y19050
X104775Y8763
X111760Y19050
X109982Y12700
X121031Y12200
X110109Y13716
X110109Y5715
X108458Y17780
X113919Y9779
X107061Y12700
X121920Y14605
X112395Y14605
X112395Y16002
X118491Y20320
X114173Y20320
X120142Y11430
X108839Y7874
X113665Y8001
X123698Y6858
X118745Y8857
X117602Y10782
X121920Y13335
X104267Y19050
X130683Y8763
X137668Y19050
X135890Y12700
X146939Y12200
X149860Y8890
X108839Y59690
X136017Y13716
X136017Y5715
X134366Y17780
X139827Y9779
X132969Y12700
X147828Y14605
X138303Y14605
X138303Y16002
X144399Y20320
X140081Y20320
X146050Y11430
X134747Y7874
X139573Y8001
X149606Y6858
X144653Y8857
X143510Y10782
X147828Y13335
X130175Y19050
X1143Y34671
X8128Y44958
X6350Y38608
X17399Y38108
X20320Y34798
X6477Y39624
X6477Y31623
X4826Y43688
X10287Y35687
X3429Y38608
X18288Y40513
X8763Y40513
X8763Y41910
X14859Y46228
X10541Y46228
X16510Y37338
X5207Y33782
X10033Y33909
X20066Y32766
X15113Y34765
X13970Y36690
X18288Y39243
X635Y44958
X27051Y34671
X34036Y44958
X32258Y38608
X43307Y38108
X46228Y34798
X32385Y39624
X32385Y31623
X30734Y43688
X36195Y35687
X29337Y38608
X44196Y40513
X34671Y40513
X34671Y41910
X40767Y46228
X36449Y46228
X42418Y37338
X31115Y33782
X35941Y33909
X45974Y32766
X41021Y34765
X39878Y36690
X44196Y39243
X26543Y44958
X52959Y34671
X59944Y44958
X58166Y38608
X69215Y38108
X72136Y34798
X58293Y39624
X58293Y31623
X56642Y43688
X62103Y35687
X55245Y38608
X70104Y40513
X60579Y40513
X60579Y41910
X66675Y46228
X62357Y46228
X68326Y37338
X57023Y33782
X61849Y33909
X71882Y32766
X66929Y34765
X65786Y36690
X70104Y39243
X52451Y44958
X78867Y34671
X85852Y44958
X84074Y38608
X95123Y38108
X98044Y34798
X84201Y39624
X84201Y31623
X82550Y43688
X88011Y35687
M30